name rise30.8019peak61.5557fall86.2505.mot
datacolumns 19
datarows 15
range 12.78161900000000 12.80495200000000
endheader
time	ground_force1_vx	ground_force1_vy	ground_force1_vz	ground_force1_px	ground_force1_py	ground_force1_pz	ground_force2_vx	ground_force2_vy	ground_force2_vz	ground_force2_px	ground_force2_py	ground_force2_pz	ground_torque1_x	ground_torque1_y	ground_torque1_z	ground_torque2_x	ground_torque2_y	ground_torque2_z	
12.78161900000000	-7.77783900000000	686.24913000000004	27.72743800000000	0.09727800000000	0.00000000000000	0.09236900000000	0.00000000000000	0.00000000000000	0.00000000000000	0.00000000000000	0.00000000000000	0.00000000000000	0.00000000000000	9.53655400000000	0.00000000000000	0.00000000000000	0.00000000000000	0.00000000000000	
12.78328900000000	-8.32451600000000	687.13177099999996	27.70367600000000	0.09613700000000	0.00000000000000	0.09239100000000	0.00000000000000	0.00000000000000	0.00000000000000	0.00000000000000	0.00000000000000	0.00000000000000	0.00000000000000	9.62240000000000	0.00000000000000	0.00000000000000	0.00000000000000	0.00000000000000	
12.78495200000000	-8.87817300000000	688.02348099999995	27.68148800000000	0.09499700000000	0.00000000000000	0.09241400000000	0.00000000000000	0.00000000000000	0.00000000000000	0.00000000000000	0.00000000000000	0.00000000000000	0.00000000000000	9.71053900000000	0.00000000000000	0.00000000000000	0.00000000000000	0.00000000000000	
12.78662400000000	-9.43859300000000	688.92519900000002	27.66108400000000	0.09385800000000	0.00000000000000	0.09243700000000	0.00000000000000	0.00000000000000	0.00000000000000	0.00000000000000	0.00000000000000	0.00000000000000	0.00000000000000	9.80094300000000	0.00000000000000	0.00000000000000	0.00000000000000	0.00000000000000	
12.78829000000000	-10.00555100000000	689.83794799999998	27.64267900000000	0.09272100000000	0.00000000000000	0.09245900000000	0.00000000000000	0.00000000000000	0.00000000000000	0.00000000000000	0.00000000000000	0.00000000000000	0.00000000000000	9.89358100000000	0.00000000000000	0.00000000000000	0.00000000000000	0.00000000000000	
12.78995300000000	-10.57881200000000	690.76282900000001	27.62649200000000	0.09158700000000	0.00000000000000	0.09248200000000	0.00000000000000	0.00000000000000	0.00000000000000	0.00000000000000	0.00000000000000	0.00000000000000	0.00000000000000	9.98841800000000	0.00000000000000	0.00000000000000	0.00000000000000	0.00000000000000	
12.79162500000000	-11.15813200000000	691.70101299999999	27.61274500000000	0.09045700000000	0.00000000000000	0.09250500000000	0.00000000000000	0.00000000000000	0.00000000000000	0.00000000000000	0.00000000000000	0.00000000000000	0.00000000000000	10.08541500000000	0.00000000000000	0.00000000000000	0.00000000000000	0.00000000000000	
12.79328800000000	-11.74326100000000	692.65373000000000	27.60166400000000	0.08933100000000	0.00000000000000	0.09252900000000	0.00000000000000	0.00000000000000	0.00000000000000	0.00000000000000	0.00000000000000	0.00000000000000	0.00000000000000	10.18452600000000	0.00000000000000	0.00000000000000	0.00000000000000	0.00000000000000	
12.79495200000000	-12.33394100000000	693.62226499999997	27.59347600000000	0.08820900000000	0.00000000000000	0.09255200000000	0.00000000000000	0.00000000000000	0.00000000000000	0.00000000000000	0.00000000000000	0.00000000000000	0.00000000000000	10.28570200000000	0.00000000000000	0.00000000000000	0.00000000000000	0.00000000000000	
12.79662100000000	-12.92990900000000	694.60794299999998	27.58840700000000	0.08709200000000	0.00000000000000	0.09257500000000	0.00000000000000	0.00000000000000	0.00000000000000	0.00000000000000	0.00000000000000	0.00000000000000	0.00000000000000	10.38888900000000	0.00000000000000	0.00000000000000	0.00000000000000	0.00000000000000	
12.79828400000000	-13.53089300000000	695.61212499999999	27.58668400000000	0.08598100000000	0.00000000000000	0.09259900000000	0.00000000000000	0.00000000000000	0.00000000000000	0.00000000000000	0.00000000000000	0.00000000000000	0.00000000000000	10.49402500000000	0.00000000000000	0.00000000000000	0.00000000000000	0.00000000000000	
12.79995900000000	-14.13662200000000	696.63619600000004	27.58853200000000	0.08487700000000	0.00000000000000	0.09262300000000	0.00000000000000	0.00000000000000	0.00000000000000	0.00000000000000	0.00000000000000	0.00000000000000	0.00000000000000	10.60104700000000	0.00000000000000	0.00000000000000	0.00000000000000	0.00000000000000	
12.80162200000000	-14.74681400000000	697.68155700000000	27.59417400000000	0.08377900000000	0.00000000000000	0.09264700000000	0.00000000000000	0.00000000000000	0.00000000000000	0.00000000000000	0.00000000000000	0.00000000000000	0.00000000000000	10.70988300000000	0.00000000000000	0.00000000000000	0.00000000000000	0.00000000000000	
12.80328900000000	-15.36118900000000	698.74961199999996	27.60382900000000	0.08268800000000	0.00000000000000	0.09267000000000	0.00000000000000	0.00000000000000	0.00000000000000	0.00000000000000	0.00000000000000	0.00000000000000	0.00000000000000	10.82045900000000	0.00000000000000	0.00000000000000	0.00000000000000	0.00000000000000	
12.80495200000000	-15.97945800000000	699.84176100000002	27.61771400000000	0.08160500000000	0.00000000000000	0.09269500000000	0.00000000000000	0.00000000000000	0.00000000000000	0.00000000000000	0.00000000000000	0.00000000000000	0.00000000000000	10.93269200000000	0.00000000000000	0.00000000000000	0.00000000000000	0.00000000000000	
